<svg xmlns="http://www.w3.org/2000/svg" version="1.1" xmlns:xlink="http://www.w3.org/1999/xlink" xmlns:svgjs="http://svgjs.com/svgjs" width="1440" height="560" preserveAspectRatio="none" viewBox="0 0 1440 560"><g mask="url(&quot;#SvgjsMask1693&quot;)" fill="none"><rect width="1440" height="560" x="0" y="0" fill="rgba(255, 255, 255, 1)"></rect><path d="M0 -100L86.61 -50L86.61 50L0 100L-86.61 50L-86.61 -50zM86.61 50L173.21 100L173.21 200L86.61 250L0 200L0 100zM0 200L86.61 250L86.61 350L0 400L-86.61 350L-86.61 250zM86.61 350L173.21 400L173.21 500L86.61 550L0 500L0 400zM0 500L86.61 550L86.61 650L0 700L-86.61 650L-86.61 550zM173.21 -100L259.81 -50L259.81 50L173.21 100L86.61 50L86.61 -50zM259.81 50L346.42 100L346.42 200L259.81 250L173.21 200L173.21 100zM173.21 200L259.81 250L259.81 350L173.21 400L86.61 350L86.61 250zM259.81 350L346.42 400L346.42 500L259.81 550L173.21 500L173.21 400zM173.21 500L259.81 550L259.81 650L173.21 700L86.61 650L86.61 550zM346.42 -100L433.03 -50L433.03 50L346.42 100L259.81 50L259.81 -50zM433.03 50L519.63 100L519.63 200L433.03 250L346.42 200L346.42 100zM346.42 200L433.03 250L433.03 350L346.42 400L259.81 350L259.81 250zM433.03 350L519.63 400L519.63 500L433.03 550L346.42 500L346.42 400zM346.42 500L433.03 550L433.03 650L346.42 700L259.81 650L259.81 550zM519.63 -100L606.24 -50L606.24 50L519.63 100L433.02 50L433.02 -50zM606.24 50L692.84 100L692.84 200L606.24 250L519.63 200L519.63 100zM519.63 200L606.24 250L606.24 350L519.63 400L433.02 350L433.02 250zM606.24 350L692.84 400L692.84 500L606.24 550L519.63 500L519.63 400zM519.63 500L606.24 550L606.24 650L519.63 700L433.02 650L433.02 550zM692.84 -100L779.45 -50L779.45 50L692.84 100L606.24 50L606.24 -50zM779.45 50L866.05 100L866.05 200L779.45 250L692.84 200L692.84 100zM692.84 200L779.45 250L779.45 350L692.84 400L606.24 350L606.24 250zM779.45 350L866.05 400L866.05 500L779.45 550L692.84 500L692.84 400zM692.84 500L779.45 550L779.45 650L692.84 700L606.24 650L606.24 550zM866.05 -100L952.66 -50L952.66 50L866.05 100L779.45 50L779.45 -50zM952.66 50L1039.26 100L1039.26 200L952.66 250L866.05 200L866.05 100zM866.05 200L952.66 250L952.66 350L866.05 400L779.45 350L779.45 250zM952.66 350L1039.26 400L1039.26 500L952.66 550L866.05 500L866.05 400zM866.05 500L952.66 550L952.66 650L866.05 700L779.45 650L779.45 550zM1039.26 -100L1125.87 -50L1125.87 50L1039.26 100L952.65 50L952.65 -50zM1125.87 50L1212.47 100L1212.47 200L1125.87 250L1039.26 200L1039.26 100zM1039.26 200L1125.87 250L1125.87 350L1039.26 400L952.65 350L952.65 250zM1125.87 350L1212.47 400L1212.47 500L1125.87 550L1039.26 500L1039.26 400zM1039.26 500L1125.87 550L1125.87 650L1039.26 700L952.65 650L952.65 550zM1212.47 -100L1299.08 -50L1299.08 50L1212.47 100L1125.87 50L1125.87 -50zM1299.08 50L1385.68 100L1385.68 200L1299.08 250L1212.47 200L1212.47 100zM1212.47 200L1299.08 250L1299.08 350L1212.47 400L1125.87 350L1125.87 250zM1299.08 350L1385.68 400L1385.68 500L1299.08 550L1212.47 500L1212.47 400zM1212.47 500L1299.08 550L1299.08 650L1212.47 700L1125.87 650L1125.87 550zM1385.68 -100L1472.29 -50L1472.29 50L1385.68 100L1299.08 50L1299.08 -50zM1472.29 50L1558.89 100L1558.89 200L1472.29 250L1385.68 200L1385.68 100zM1385.68 200L1472.29 250L1472.29 350L1385.68 400L1299.08 350L1299.08 250zM1472.29 350L1558.89 400L1558.89 500L1472.29 550L1385.68 500L1385.68 400zM1385.68 500L1472.29 550L1472.29 650L1385.68 700L1299.08 650L1299.08 550z" stroke="rgba(177, 177, 177, 1)" stroke-width="2"></path><path d="M-10 -100 a10 10 0 1 0 20 0 a10 10 0 1 0 -20 0zM76.61 -50 a10 10 0 1 0 20 0 a10 10 0 1 0 -20 0zM76.61 50 a10 10 0 1 0 20 0 a10 10 0 1 0 -20 0zM-10 100 a10 10 0 1 0 20 0 a10 10 0 1 0 -20 0zM-96.61 50 a10 10 0 1 0 20 0 a10 10 0 1 0 -20 0zM-96.61 -50 a10 10 0 1 0 20 0 a10 10 0 1 0 -20 0zM163.21 100 a10 10 0 1 0 20 0 a10 10 0 1 0 -20 0zM163.21 200 a10 10 0 1 0 20 0 a10 10 0 1 0 -20 0zM76.61 250 a10 10 0 1 0 20 0 a10 10 0 1 0 -20 0zM-10 200 a10 10 0 1 0 20 0 a10 10 0 1 0 -20 0zM76.61 350 a10 10 0 1 0 20 0 a10 10 0 1 0 -20 0zM-10 400 a10 10 0 1 0 20 0 a10 10 0 1 0 -20 0zM-96.61 350 a10 10 0 1 0 20 0 a10 10 0 1 0 -20 0zM-96.61 250 a10 10 0 1 0 20 0 a10 10 0 1 0 -20 0zM163.21 400 a10 10 0 1 0 20 0 a10 10 0 1 0 -20 0zM163.21 500 a10 10 0 1 0 20 0 a10 10 0 1 0 -20 0zM76.61 550 a10 10 0 1 0 20 0 a10 10 0 1 0 -20 0zM-10 500 a10 10 0 1 0 20 0 a10 10 0 1 0 -20 0zM76.61 650 a10 10 0 1 0 20 0 a10 10 0 1 0 -20 0zM-10 700 a10 10 0 1 0 20 0 a10 10 0 1 0 -20 0zM-96.61 650 a10 10 0 1 0 20 0 a10 10 0 1 0 -20 0zM-96.61 550 a10 10 0 1 0 20 0 a10 10 0 1 0 -20 0zM163.21 -100 a10 10 0 1 0 20 0 a10 10 0 1 0 -20 0zM249.81 -50 a10 10 0 1 0 20 0 a10 10 0 1 0 -20 0zM249.81 50 a10 10 0 1 0 20 0 a10 10 0 1 0 -20 0zM336.42 100 a10 10 0 1 0 20 0 a10 10 0 1 0 -20 0zM336.42 200 a10 10 0 1 0 20 0 a10 10 0 1 0 -20 0zM249.81 250 a10 10 0 1 0 20 0 a10 10 0 1 0 -20 0zM249.81 350 a10 10 0 1 0 20 0 a10 10 0 1 0 -20 0zM336.42 400 a10 10 0 1 0 20 0 a10 10 0 1 0 -20 0zM336.42 500 a10 10 0 1 0 20 0 a10 10 0 1 0 -20 0zM249.81 550 a10 10 0 1 0 20 0 a10 10 0 1 0 -20 0zM249.81 650 a10 10 0 1 0 20 0 a10 10 0 1 0 -20 0zM163.21 700 a10 10 0 1 0 20 0 a10 10 0 1 0 -20 0zM336.42 -100 a10 10 0 1 0 20 0 a10 10 0 1 0 -20 0zM423.03 -50 a10 10 0 1 0 20 0 a10 10 0 1 0 -20 0zM423.03 50 a10 10 0 1 0 20 0 a10 10 0 1 0 -20 0zM509.63 100 a10 10 0 1 0 20 0 a10 10 0 1 0 -20 0zM509.63 200 a10 10 0 1 0 20 0 a10 10 0 1 0 -20 0zM423.03 250 a10 10 0 1 0 20 0 a10 10 0 1 0 -20 0zM423.03 350 a10 10 0 1 0 20 0 a10 10 0 1 0 -20 0zM509.63 400 a10 10 0 1 0 20 0 a10 10 0 1 0 -20 0zM509.63 500 a10 10 0 1 0 20 0 a10 10 0 1 0 -20 0zM423.03 550 a10 10 0 1 0 20 0 a10 10 0 1 0 -20 0zM423.03 650 a10 10 0 1 0 20 0 a10 10 0 1 0 -20 0zM336.42 700 a10 10 0 1 0 20 0 a10 10 0 1 0 -20 0zM509.63 -100 a10 10 0 1 0 20 0 a10 10 0 1 0 -20 0zM596.24 -50 a10 10 0 1 0 20 0 a10 10 0 1 0 -20 0zM596.24 50 a10 10 0 1 0 20 0 a10 10 0 1 0 -20 0zM423.02 50 a10 10 0 1 0 20 0 a10 10 0 1 0 -20 0zM423.02 -50 a10 10 0 1 0 20 0 a10 10 0 1 0 -20 0zM682.84 100 a10 10 0 1 0 20 0 a10 10 0 1 0 -20 0zM682.84 200 a10 10 0 1 0 20 0 a10 10 0 1 0 -20 0zM596.24 250 a10 10 0 1 0 20 0 a10 10 0 1 0 -20 0zM596.24 350 a10 10 0 1 0 20 0 a10 10 0 1 0 -20 0zM423.02 350 a10 10 0 1 0 20 0 a10 10 0 1 0 -20 0zM423.02 250 a10 10 0 1 0 20 0 a10 10 0 1 0 -20 0zM682.84 400 a10 10 0 1 0 20 0 a10 10 0 1 0 -20 0zM682.84 500 a10 10 0 1 0 20 0 a10 10 0 1 0 -20 0zM596.24 550 a10 10 0 1 0 20 0 a10 10 0 1 0 -20 0zM596.24 650 a10 10 0 1 0 20 0 a10 10 0 1 0 -20 0zM509.63 700 a10 10 0 1 0 20 0 a10 10 0 1 0 -20 0zM423.02 650 a10 10 0 1 0 20 0 a10 10 0 1 0 -20 0zM423.02 550 a10 10 0 1 0 20 0 a10 10 0 1 0 -20 0zM682.84 -100 a10 10 0 1 0 20 0 a10 10 0 1 0 -20 0zM769.45 -50 a10 10 0 1 0 20 0 a10 10 0 1 0 -20 0zM769.45 50 a10 10 0 1 0 20 0 a10 10 0 1 0 -20 0zM856.05 100 a10 10 0 1 0 20 0 a10 10 0 1 0 -20 0zM856.05 200 a10 10 0 1 0 20 0 a10 10 0 1 0 -20 0zM769.45 250 a10 10 0 1 0 20 0 a10 10 0 1 0 -20 0zM769.45 350 a10 10 0 1 0 20 0 a10 10 0 1 0 -20 0zM856.05 400 a10 10 0 1 0 20 0 a10 10 0 1 0 -20 0zM856.05 500 a10 10 0 1 0 20 0 a10 10 0 1 0 -20 0zM769.45 550 a10 10 0 1 0 20 0 a10 10 0 1 0 -20 0zM769.45 650 a10 10 0 1 0 20 0 a10 10 0 1 0 -20 0zM682.84 700 a10 10 0 1 0 20 0 a10 10 0 1 0 -20 0zM856.05 -100 a10 10 0 1 0 20 0 a10 10 0 1 0 -20 0zM942.66 -50 a10 10 0 1 0 20 0 a10 10 0 1 0 -20 0zM942.66 50 a10 10 0 1 0 20 0 a10 10 0 1 0 -20 0zM1029.26 100 a10 10 0 1 0 20 0 a10 10 0 1 0 -20 0zM1029.26 200 a10 10 0 1 0 20 0 a10 10 0 1 0 -20 0zM942.66 250 a10 10 0 1 0 20 0 a10 10 0 1 0 -20 0zM942.66 350 a10 10 0 1 0 20 0 a10 10 0 1 0 -20 0zM1029.26 400 a10 10 0 1 0 20 0 a10 10 0 1 0 -20 0zM1029.26 500 a10 10 0 1 0 20 0 a10 10 0 1 0 -20 0zM942.66 550 a10 10 0 1 0 20 0 a10 10 0 1 0 -20 0zM942.66 650 a10 10 0 1 0 20 0 a10 10 0 1 0 -20 0zM856.05 700 a10 10 0 1 0 20 0 a10 10 0 1 0 -20 0zM1029.26 -100 a10 10 0 1 0 20 0 a10 10 0 1 0 -20 0zM1115.87 -50 a10 10 0 1 0 20 0 a10 10 0 1 0 -20 0zM1115.87 50 a10 10 0 1 0 20 0 a10 10 0 1 0 -20 0zM942.65 50 a10 10 0 1 0 20 0 a10 10 0 1 0 -20 0zM942.65 -50 a10 10 0 1 0 20 0 a10 10 0 1 0 -20 0zM1202.47 100 a10 10 0 1 0 20 0 a10 10 0 1 0 -20 0zM1202.47 200 a10 10 0 1 0 20 0 a10 10 0 1 0 -20 0zM1115.87 250 a10 10 0 1 0 20 0 a10 10 0 1 0 -20 0zM1115.87 350 a10 10 0 1 0 20 0 a10 10 0 1 0 -20 0zM942.65 350 a10 10 0 1 0 20 0 a10 10 0 1 0 -20 0zM942.65 250 a10 10 0 1 0 20 0 a10 10 0 1 0 -20 0zM1202.47 400 a10 10 0 1 0 20 0 a10 10 0 1 0 -20 0zM1202.47 500 a10 10 0 1 0 20 0 a10 10 0 1 0 -20 0zM1115.87 550 a10 10 0 1 0 20 0 a10 10 0 1 0 -20 0zM1115.87 650 a10 10 0 1 0 20 0 a10 10 0 1 0 -20 0zM1029.26 700 a10 10 0 1 0 20 0 a10 10 0 1 0 -20 0zM942.65 650 a10 10 0 1 0 20 0 a10 10 0 1 0 -20 0zM942.65 550 a10 10 0 1 0 20 0 a10 10 0 1 0 -20 0zM1202.47 -100 a10 10 0 1 0 20 0 a10 10 0 1 0 -20 0zM1289.08 -50 a10 10 0 1 0 20 0 a10 10 0 1 0 -20 0zM1289.08 50 a10 10 0 1 0 20 0 a10 10 0 1 0 -20 0zM1375.68 100 a10 10 0 1 0 20 0 a10 10 0 1 0 -20 0zM1375.68 200 a10 10 0 1 0 20 0 a10 10 0 1 0 -20 0zM1289.08 250 a10 10 0 1 0 20 0 a10 10 0 1 0 -20 0zM1289.08 350 a10 10 0 1 0 20 0 a10 10 0 1 0 -20 0zM1375.68 400 a10 10 0 1 0 20 0 a10 10 0 1 0 -20 0zM1375.68 500 a10 10 0 1 0 20 0 a10 10 0 1 0 -20 0zM1289.08 550 a10 10 0 1 0 20 0 a10 10 0 1 0 -20 0zM1289.08 650 a10 10 0 1 0 20 0 a10 10 0 1 0 -20 0zM1202.47 700 a10 10 0 1 0 20 0 a10 10 0 1 0 -20 0zM1375.68 -100 a10 10 0 1 0 20 0 a10 10 0 1 0 -20 0zM1462.29 -50 a10 10 0 1 0 20 0 a10 10 0 1 0 -20 0zM1462.29 50 a10 10 0 1 0 20 0 a10 10 0 1 0 -20 0zM1548.89 100 a10 10 0 1 0 20 0 a10 10 0 1 0 -20 0zM1548.89 200 a10 10 0 1 0 20 0 a10 10 0 1 0 -20 0zM1462.29 250 a10 10 0 1 0 20 0 a10 10 0 1 0 -20 0zM1462.29 350 a10 10 0 1 0 20 0 a10 10 0 1 0 -20 0zM1548.89 400 a10 10 0 1 0 20 0 a10 10 0 1 0 -20 0zM1548.89 500 a10 10 0 1 0 20 0 a10 10 0 1 0 -20 0zM1462.29 550 a10 10 0 1 0 20 0 a10 10 0 1 0 -20 0zM1462.29 650 a10 10 0 1 0 20 0 a10 10 0 1 0 -20 0zM1375.68 700 a10 10 0 1 0 20 0 a10 10 0 1 0 -20 0z" fill="rgba(177, 177, 177, 1)"></path><path d="M0 -50L43.3 -25L43.3 25L0 50L-43.3 25L-43.3 -25zM43.3 25L86.61 50L86.61 100L43.3 125L0 100L0 50zM0 100L43.3 125L43.3 175L0 200L-43.3 175L-43.3 125zM43.3 175L86.61 200L86.61 250L43.3 275L0 250L0 200zM0 250L43.3 275L43.3 325L0 350L-43.3 325L-43.3 275zM43.3 325L86.61 350L86.61 400L43.3 425L0 400L0 350zM0 400L43.3 425L43.3 475L0 500L-43.3 475L-43.3 425zM43.3 475L86.61 500L86.61 550L43.3 575L0 550L0 500zM86.61 -50L129.91 -25L129.91 25L86.61 50L43.3 25L43.3 -25zM129.91 25L173.21 50L173.21 100L129.91 125L86.61 100L86.61 50zM86.61 100L129.91 125L129.91 175L86.61 200L43.3 175L43.3 125zM129.91 175L173.21 200L173.21 250L129.91 275L86.61 250L86.61 200zM86.61 250L129.91 275L129.91 325L86.61 350L43.3 325L43.3 275zM129.91 325L173.21 350L173.21 400L129.91 425L86.61 400L86.61 350zM86.61 400L129.91 425L129.91 475L86.61 500L43.3 475L43.3 425zM129.91 475L173.21 500L173.21 550L129.91 575L86.61 550L86.61 500zM173.21 -50L216.51 -25L216.51 25L173.21 50L129.91 25L129.91 -25zM216.51 25L259.81 50L259.81 100L216.51 125L173.21 100L173.21 50zM173.21 100L216.51 125L216.51 175L173.21 200L129.91 175L129.91 125zM216.51 175L259.81 200L259.81 250L216.51 275L173.21 250L173.21 200zM173.21 250L216.51 275L216.51 325L173.21 350L129.91 325L129.91 275zM216.51 325L259.81 350L259.81 400L216.51 425L173.21 400L173.21 350zM173.21 400L216.51 425L216.51 475L173.21 500L129.91 475L129.91 425zM216.51 475L259.81 500L259.81 550L216.51 575L173.21 550L173.21 500zM259.81 -50L303.12 -25L303.12 25L259.81 50L216.51 25L216.51 -25zM303.12 25L346.42 50L346.42 100L303.12 125L259.81 100L259.81 50zM259.81 100L303.12 125L303.12 175L259.81 200L216.51 175L216.51 125zM303.12 175L346.42 200L346.42 250L303.12 275L259.81 250L259.81 200zM259.81 250L303.12 275L303.12 325L259.81 350L216.51 325L216.51 275zM303.12 325L346.42 350L346.42 400L303.12 425L259.81 400L259.81 350zM259.81 400L303.12 425L303.12 475L259.81 500L216.51 475L216.51 425zM303.12 475L346.42 500L346.42 550L303.12 575L259.81 550L259.81 500zM346.42 -50L389.72 -25L389.72 25L346.42 50L303.12 25L303.12 -25zM389.72 25L433.03 50L433.03 100L389.72 125L346.42 100L346.42 50zM346.42 100L389.72 125L389.72 175L346.42 200L303.12 175L303.12 125zM389.72 175L433.03 200L433.03 250L389.72 275L346.42 250L346.42 200zM346.42 250L389.72 275L389.72 325L346.42 350L303.12 325L303.12 275zM389.72 325L433.03 350L433.03 400L389.72 425L346.42 400L346.42 350zM346.42 400L389.72 425L389.72 475L346.42 500L303.12 475L303.12 425zM389.72 475L433.03 500L433.03 550L389.72 575L346.42 550L346.42 500zM433.03 -50L476.33 -25L476.33 25L433.03 50L389.72 25L389.72 -25zM476.33 25L519.63 50L519.63 100L476.33 125L433.03 100L433.03 50zM433.03 100L476.33 125L476.33 175L433.03 200L389.72 175L389.72 125zM476.33 175L519.63 200L519.63 250L476.33 275L433.03 250L433.03 200zM433.03 250L476.33 275L476.33 325L433.03 350L389.72 325L389.72 275zM476.33 325L519.63 350L519.63 400L476.33 425L433.03 400L433.03 350zM433.03 400L476.33 425L476.33 475L433.03 500L389.72 475L389.72 425zM476.33 475L519.63 500L519.63 550L476.33 575L433.03 550L433.03 500zM519.63 -50L562.93 -25L562.93 25L519.63 50L476.33 25L476.33 -25zM562.93 25L606.24 50L606.24 100L562.93 125L519.63 100L519.63 50zM519.63 100L562.93 125L562.93 175L519.63 200L476.33 175L476.33 125zM562.93 175L606.24 200L606.24 250L562.93 275L519.63 250L519.63 200zM519.63 250L562.93 275L562.93 325L519.63 350L476.33 325L476.33 275zM562.93 325L606.24 350L606.24 400L562.93 425L519.63 400L519.63 350zM519.63 400L562.93 425L562.93 475L519.63 500L476.33 475L476.33 425zM562.93 475L606.24 500L606.24 550L562.93 575L519.63 550L519.63 500zM606.24 -50L649.54 -25L649.54 25L606.24 50L562.93 25L562.93 -25zM649.54 25L692.84 50L692.84 100L649.54 125L606.24 100L606.24 50zM606.24 100L649.54 125L649.54 175L606.24 200L562.93 175L562.93 125zM649.54 175L692.84 200L692.84 250L649.54 275L606.24 250L606.24 200zM606.24 250L649.54 275L649.54 325L606.24 350L562.93 325L562.93 275zM649.54 325L692.84 350L692.84 400L649.54 425L606.24 400L606.24 350zM606.24 400L649.54 425L649.54 475L606.24 500L562.93 475L562.93 425zM649.54 475L692.84 500L692.84 550L649.54 575L606.24 550L606.24 500zM692.84 -50L736.14 -25L736.14 25L692.84 50L649.54 25L649.54 -25zM736.14 25L779.45 50L779.45 100L736.14 125L692.84 100L692.84 50zM692.84 100L736.14 125L736.14 175L692.84 200L649.54 175L649.54 125zM736.14 175L779.45 200L779.45 250L736.14 275L692.84 250L692.84 200zM692.84 250L736.14 275L736.14 325L692.84 350L649.54 325L649.54 275zM736.14 325L779.45 350L779.45 400L736.14 425L692.84 400L692.84 350zM692.84 400L736.14 425L736.14 475L692.84 500L649.54 475L649.54 425zM736.14 475L779.45 500L779.45 550L736.14 575L692.84 550L692.84 500zM779.45 -50L822.75 -25L822.75 25L779.45 50L736.14 25L736.14 -25zM822.75 25L866.05 50L866.05 100L822.75 125L779.45 100L779.45 50zM779.45 100L822.75 125L822.75 175L779.45 200L736.14 175L736.14 125zM822.75 175L866.05 200L866.05 250L822.75 275L779.45 250L779.45 200zM779.45 250L822.75 275L822.75 325L779.45 350L736.14 325L736.14 275zM822.75 325L866.05 350L866.05 400L822.75 425L779.45 400L779.45 350zM779.45 400L822.75 425L822.75 475L779.45 500L736.14 475L736.14 425zM822.75 475L866.05 500L866.05 550L822.75 575L779.45 550L779.45 500zM866.05 -50L909.35 -25L909.35 25L866.05 50L822.75 25L822.75 -25zM909.35 25L952.66 50L952.66 100L909.35 125L866.05 100L866.05 50zM866.05 100L909.35 125L909.35 175L866.05 200L822.75 175L822.75 125zM909.35 175L952.66 200L952.66 250L909.35 275L866.05 250L866.05 200zM866.05 250L909.35 275L909.35 325L866.05 350L822.75 325L822.75 275zM909.35 325L952.66 350L952.66 400L909.35 425L866.05 400L866.05 350zM866.05 400L909.35 425L909.35 475L866.05 500L822.75 475L822.75 425zM909.35 475L952.66 500L952.66 550L909.35 575L866.05 550L866.05 500zM952.66 -50L995.96 -25L995.96 25L952.66 50L909.35 25L909.35 -25zM995.96 25L1039.26 50L1039.26 100L995.96 125L952.66 100L952.66 50zM952.66 100L995.96 125L995.96 175L952.66 200L909.35 175L909.35 125zM995.96 175L1039.26 200L1039.26 250L995.96 275L952.66 250L952.66 200zM952.66 250L995.96 275L995.96 325L952.66 350L909.35 325L909.35 275zM995.96 325L1039.26 350L1039.26 400L995.96 425L952.66 400L952.66 350zM952.66 400L995.96 425L995.96 475L952.66 500L909.35 475L909.35 425zM995.96 475L1039.26 500L1039.26 550L995.96 575L952.66 550L952.66 500zM1039.26 -50L1082.56 -25L1082.56 25L1039.26 50L995.96 25L995.96 -25zM1082.56 25L1125.87 50L1125.87 100L1082.56 125L1039.26 100L1039.26 50zM1039.26 100L1082.56 125L1082.56 175L1039.26 200L995.96 175L995.96 125zM1082.56 175L1125.87 200L1125.87 250L1082.56 275L1039.26 250L1039.26 200zM1039.26 250L1082.56 275L1082.56 325L1039.26 350L995.96 325L995.96 275zM1082.56 325L1125.87 350L1125.87 400L1082.56 425L1039.26 400L1039.26 350zM1039.26 400L1082.56 425L1082.56 475L1039.26 500L995.96 475L995.96 425zM1082.56 475L1125.87 500L1125.87 550L1082.56 575L1039.26 550L1039.26 500zM1125.87 -50L1169.17 -25L1169.17 25L1125.87 50L1082.56 25L1082.56 -25zM1169.17 25L1212.47 50L1212.47 100L1169.17 125L1125.87 100L1125.87 50zM1125.87 100L1169.17 125L1169.17 175L1125.87 200L1082.56 175L1082.56 125zM1169.17 175L1212.47 200L1212.47 250L1169.17 275L1125.87 250L1125.87 200zM1125.87 250L1169.17 275L1169.17 325L1125.87 350L1082.56 325L1082.56 275zM1169.17 325L1212.47 350L1212.47 400L1169.17 425L1125.87 400L1125.87 350zM1125.87 400L1169.17 425L1169.17 475L1125.87 500L1082.56 475L1082.56 425zM1169.17 475L1212.47 500L1212.47 550L1169.17 575L1125.87 550L1125.87 500zM1212.47 -50L1255.77 -25L1255.77 25L1212.47 50L1169.17 25L1169.17 -25zM1255.77 25L1299.08 50L1299.08 100L1255.77 125L1212.47 100L1212.47 50zM1212.47 100L1255.77 125L1255.77 175L1212.47 200L1169.17 175L1169.17 125zM1255.77 175L1299.08 200L1299.08 250L1255.77 275L1212.47 250L1212.47 200zM1212.47 250L1255.77 275L1255.77 325L1212.47 350L1169.17 325L1169.17 275zM1255.77 325L1299.08 350L1299.08 400L1255.77 425L1212.47 400L1212.47 350zM1212.47 400L1255.77 425L1255.77 475L1212.47 500L1169.17 475L1169.17 425zM1255.77 475L1299.08 500L1299.08 550L1255.77 575L1212.47 550L1212.47 500zM1299.08 -50L1342.38 -25L1342.38 25L1299.08 50L1255.77 25L1255.77 -25zM1342.38 25L1385.68 50L1385.68 100L1342.38 125L1299.08 100L1299.08 50zM1299.08 100L1342.38 125L1342.38 175L1299.08 200L1255.77 175L1255.77 125zM1342.38 175L1385.68 200L1385.68 250L1342.38 275L1299.08 250L1299.08 200zM1299.08 250L1342.38 275L1342.38 325L1299.08 350L1255.77 325L1255.77 275zM1342.38 325L1385.68 350L1385.68 400L1342.38 425L1299.08 400L1299.08 350zM1299.08 400L1342.38 425L1342.38 475L1299.08 500L1255.77 475L1255.77 425zM1342.38 475L1385.68 500L1385.68 550L1342.38 575L1299.08 550L1299.08 500zM1385.68 -50L1428.98 -25L1428.98 25L1385.68 50L1342.38 25L1342.38 -25zM1428.98 25L1472.29 50L1472.29 100L1428.98 125L1385.68 100L1385.68 50zM1385.68 100L1428.98 125L1428.98 175L1385.68 200L1342.38 175L1342.38 125zM1428.98 175L1472.29 200L1472.29 250L1428.98 275L1385.68 250L1385.68 200zM1385.68 250L1428.98 275L1428.98 325L1385.68 350L1342.38 325L1342.38 275zM1428.98 325L1472.29 350L1472.29 400L1428.98 425L1385.68 400L1385.68 350zM1385.68 400L1428.98 425L1428.98 475L1385.68 500L1342.38 475L1342.38 425zM1428.98 475L1472.29 500L1472.29 550L1428.98 575L1385.68 550L1385.68 500z" stroke="rgba(181, 181, 181, 0.93)" stroke-width="2"></path></g><defs><mask id="SvgjsMask1693"><rect width="1440" height="560" fill="#ffffff"></rect></mask></defs></svg>